<mxfile host="app.diagrams.net" agent="Mozilla/5.0 (Windows NT 10.0; Win64; x64) AppleWebKit/537.36 (KHTML, like Gecko) Chrome/127.0.0.0 Safari/537.36" version="24.7.7">
  <diagram name="第 1 页" id="GlCtG3BpSr9u1vnbKs5y">
    <mxGraphModel dx="1018" dy="626" grid="1" gridSize="10" guides="1" tooltips="1" connect="1" arrows="1" fold="1" page="1" pageScale="1" pageWidth="827" pageHeight="1169" math="0" shadow="0">
      <root>
        <mxCell id="0" />
        <mxCell id="1" parent="0" />
        <mxCell id="qQgDRS-chkFYzWIJ0Tj4-1" value="箱钞金额足够" style="ellipse;whiteSpace=wrap;html=1;aspect=fixed;" vertex="1" parent="1">
          <mxGeometry x="110" y="230" width="70" height="70" as="geometry" />
        </mxCell>
        <mxCell id="qQgDRS-chkFYzWIJ0Tj4-2" value="借记卡未达到日限额" style="ellipse;whiteSpace=wrap;html=1;aspect=fixed;" vertex="1" parent="1">
          <mxGeometry x="110" y="320" width="70" height="70" as="geometry" />
        </mxCell>
        <mxCell id="qQgDRS-chkFYzWIJ0Tj4-3" value="借记卡未达到月限额" style="ellipse;whiteSpace=wrap;html=1;aspect=fixed;" vertex="1" parent="1">
          <mxGeometry x="110" y="400" width="70" height="70" as="geometry" />
        </mxCell>
        <mxCell id="qQgDRS-chkFYzWIJ0Tj4-4" value="卡状态正常" style="ellipse;whiteSpace=wrap;html=1;aspect=fixed;" vertex="1" parent="1">
          <mxGeometry x="110" y="480" width="70" height="70" as="geometry" />
        </mxCell>
        <mxCell id="qQgDRS-chkFYzWIJ0Tj4-5" value="取款金额为10元整数倍" style="ellipse;whiteSpace=wrap;html=1;aspect=fixed;" vertex="1" parent="1">
          <mxGeometry x="110" y="570" width="70" height="70" as="geometry" />
        </mxCell>
        <mxCell id="qQgDRS-chkFYzWIJ0Tj4-6" value="取款成功" style="ellipse;whiteSpace=wrap;html=1;aspect=fixed;" vertex="1" parent="1">
          <mxGeometry x="379" y="400" width="70" height="70" as="geometry" />
        </mxCell>
        <mxCell id="qQgDRS-chkFYzWIJ0Tj4-7" value="" style="endArrow=none;html=1;rounded=0;entryX=1;entryY=0.5;entryDx=0;entryDy=0;exitX=0;exitY=0.5;exitDx=0;exitDy=0;" edge="1" parent="1" source="qQgDRS-chkFYzWIJ0Tj4-6" target="qQgDRS-chkFYzWIJ0Tj4-1">
          <mxGeometry width="50" height="50" relative="1" as="geometry">
            <mxPoint x="280" y="430" as="sourcePoint" />
            <mxPoint x="330" y="380" as="targetPoint" />
          </mxGeometry>
        </mxCell>
        <mxCell id="qQgDRS-chkFYzWIJ0Tj4-8" value="" style="endArrow=none;html=1;rounded=0;entryX=1;entryY=0.5;entryDx=0;entryDy=0;exitX=0;exitY=0.5;exitDx=0;exitDy=0;" edge="1" parent="1" source="qQgDRS-chkFYzWIJ0Tj4-6" target="qQgDRS-chkFYzWIJ0Tj4-2">
          <mxGeometry width="50" height="50" relative="1" as="geometry">
            <mxPoint x="399" y="550" as="sourcePoint" />
            <mxPoint x="200" y="380" as="targetPoint" />
          </mxGeometry>
        </mxCell>
        <mxCell id="qQgDRS-chkFYzWIJ0Tj4-9" value="" style="endArrow=none;html=1;rounded=0;entryX=0.983;entryY=0.609;entryDx=0;entryDy=0;exitX=0;exitY=0.5;exitDx=0;exitDy=0;entryPerimeter=0;" edge="1" parent="1" source="qQgDRS-chkFYzWIJ0Tj4-6" target="qQgDRS-chkFYzWIJ0Tj4-3">
          <mxGeometry width="50" height="50" relative="1" as="geometry">
            <mxPoint x="399" y="530" as="sourcePoint" />
            <mxPoint x="200" y="450" as="targetPoint" />
          </mxGeometry>
        </mxCell>
        <mxCell id="qQgDRS-chkFYzWIJ0Tj4-10" value="" style="endArrow=none;html=1;rounded=0;entryX=1;entryY=0.5;entryDx=0;entryDy=0;exitX=0;exitY=0.5;exitDx=0;exitDy=0;" edge="1" parent="1" source="qQgDRS-chkFYzWIJ0Tj4-6" target="qQgDRS-chkFYzWIJ0Tj4-4">
          <mxGeometry width="50" height="50" relative="1" as="geometry">
            <mxPoint x="410.19" y="511.18" as="sourcePoint" />
            <mxPoint x="210.19" y="519.1800000000001" as="targetPoint" />
          </mxGeometry>
        </mxCell>
        <mxCell id="qQgDRS-chkFYzWIJ0Tj4-11" value="" style="endArrow=none;html=1;rounded=0;entryX=1;entryY=0.5;entryDx=0;entryDy=0;exitX=0;exitY=0.5;exitDx=0;exitDy=0;" edge="1" parent="1" source="qQgDRS-chkFYzWIJ0Tj4-6" target="qQgDRS-chkFYzWIJ0Tj4-5">
          <mxGeometry width="50" height="50" relative="1" as="geometry">
            <mxPoint x="409" y="505" as="sourcePoint" />
            <mxPoint x="210" y="585" as="targetPoint" />
          </mxGeometry>
        </mxCell>
        <mxCell id="qQgDRS-chkFYzWIJ0Tj4-12" value="&lt;span style=&quot;font-size: 22px;&quot;&gt;与&lt;/span&gt;" style="text;html=1;align=center;verticalAlign=middle;whiteSpace=wrap;rounded=0;" vertex="1" parent="1">
          <mxGeometry x="250" y="410" width="60" height="30" as="geometry" />
        </mxCell>
      </root>
    </mxGraphModel>
  </diagram>
</mxfile>
